# xmcd
#
# Track frame offsets: 
#        150
#        102254
#        156238
#
# Disc length: 2739 seconds
#
# Revision: 1
# Processed by: cddbd v1.5.2PL0 Copyright (c) Steve Scherf et al.
# Submitted via: ExactAudioCopy v0.99pb5
#
DISCID=1c0ab103
DTITLE=Steamhammer - Speech (1972)
DYEAR=1972
DGENRE=Rock
TTITLE0=Penumbra
TTITLE1=Telegram
TTITLE2=For Against
EXTD=
EXTT0=
EXTT1=
EXTT2=
PLAYORDER=
